<svg xmlns="http://www.w3.org/2000/svg" width="113.392" height="113.392" viewBox="0 0 30.002 30.002"><path fill="#f9f9f9" d="M0 24.728V5.272A5.272 5.272 0 0 1 5.272 0h19.456c2.91 0 5.274 2.36 5.274 5.272v19.456a5.276 5.276 0 0 1-5.274 5.274H5.272A5.274 5.274 0 0 1 0 24.728zM30.002 0"/><path fill="#00f" stroke="#00f" stroke-linecap="round" stroke-width="2.636" d="m3.75 11.25 7.5-7.5M3.75 18.75l15-15M3.75 26.25l22.5-22.5M11.25 26.25l15-15"/><path fill="#00f" d="M27.374 24.377a2.999 2.999 0 1 0-5.999 0 2.999 2.999 0 0 0 3.002 2.997 2.997 2.997 0 0 0 2.997-2.997zm-2.997 0"/></svg>