<?xml version="1.0" encoding="UTF-8" standalone="no"?>
<!-- Created with Inkscape (http://www.inkscape.org/) -->

<svg
   width="30.107069mm"
   height="30.107069mm"
   viewBox="0 0 30.107069 30.107069"
   version="1.1"
   id="svg1"
   inkscape:version="1.3 (0e150ed6c4, 2023-07-21)"
   sodipodi:docname="ESPEasyLogo_color.svg"
   xmlns:inkscape="http://www.inkscape.org/namespaces/inkscape"
   xmlns:sodipodi="http://sodipodi.sourceforge.net/DTD/sodipodi-0.dtd"
   xmlns="http://www.w3.org/2000/svg"
   xmlns:svg="http://www.w3.org/2000/svg">
  <sodipodi:namedview
     id="namedview1"
     pagecolor="#ffffff"
     bordercolor="#666666"
     borderopacity="1.0"
     inkscape:showpageshadow="2"
     inkscape:pageopacity="0.0"
     inkscape:pagecheckerboard="0"
     inkscape:deskcolor="#d1d1d1"
     inkscape:document-units="mm"
     inkscape:zoom="9.358213"
     inkscape:cx="90.081301"
     inkscape:cy="48.887539"
     inkscape:window-width="3840"
     inkscape:window-height="2071"
     inkscape:window-x="3831"
     inkscape:window-y="2151"
     inkscape:window-maximized="1"
     inkscape:current-layer="layer1" />
  <defs
     id="defs1" />
  <g
     inkscape:label="Layer 1"
     inkscape:groupmode="layer"
     id="layer1"
     transform="translate(-57.414584,-133.35)">
    <path
       stroke="#ffffff"
       stroke-width="0.105436"
       fill="none"
       d="m 57.467302,158.13121 v -19.4564 c 0,-2.91174 2.360348,-5.27209 5.272088,-5.27209 h 19.4564 c 2.910416,0 5.273145,2.36035 5.273145,5.27209 v 19.4564 c 0,2.91042 -2.362729,5.27315 -5.273145,5.27315 h -19.4564 c -2.91174,0 -5.272088,-2.36273 -5.272088,-5.27315 z m 30.001633,-24.72849"
       id="path27" />
    <g
       id="g1">
      <path
         stroke="none"
         fill="#000000"
         d="m 57.467302,158.13121 v -19.4564 c 0,-2.91174 2.360348,-5.27209 5.272088,-5.27209 h 19.4564 c 2.910416,0 5.273145,2.36035 5.273145,5.27209 v 19.4564 c 0,2.91042 -2.362729,5.27315 -5.273145,5.27315 h -19.4564 c -2.91174,0 -5.272088,-2.36273 -5.272088,-5.27315 z m 30.001633,-24.72849"
         id="path25"
         style="stroke-width:0.264583" />
      <path
         stroke="#00ae41"
         stroke-width="2.63599"
         stroke-linecap="round"
         fill="none"
         d="m 61.217507,144.65307 7.500143,-7.50014"
         id="path29" />
      <path
         stroke="#ffd100"
         stroke-width="2.63599"
         stroke-linecap="round"
         fill="none"
         d="M 61.217507,152.15295 76.217529,137.15293"
         id="path31" />
      <path
         stroke="#ff8f12"
         stroke-width="2.63599"
         stroke-linecap="round"
         fill="none"
         d="M 61.217507,159.65256 83.717144,137.15293"
         id="path33" />
      <path
         stroke="#ef483d"
         stroke-width="2.63599"
         stroke-linecap="round"
         fill="none"
         d="M 68.71765,159.65256 83.717144,144.65307"
         id="path35" />
      <path
         stroke="none"
         fill="#ffffff"
         d="m 84.841623,157.77931 c 0,-1.65814 -1.341438,-3.00116 -2.997729,-3.00116 -1.658144,0 -3.001169,1.34302 -3.001169,3.00116 0,1.6563 1.343025,2.99773 3.001169,2.99773 1.656291,0 2.997729,-1.34143 2.997729,-2.99773 z m -2.997729,0"
         id="path37"
         style="stroke-width:0.264583" />
    </g>
  </g>
</svg>
